HIERARCHY
ROOT Hips
{
	OFFSET -0.179506 -22.333345 2.821913
	CHANNELS 6 Xposition Yposition Zposition Zrotation Yrotation Xrotation 
	JOINT LeftUpLeg
	{
		OFFSET 6.951974 -9.140623 -0.681533
		CHANNELS 3 Zrotation Yrotation Xrotation
		JOINT LeftLeg
		{
			OFFSET 3.427654 -37.519855 -0.449580
			CHANNELS 3 Zrotation Yrotation Xrotation
			JOINT LeftFoot
			{
				OFFSET -1.359570 -39.796059 -4.369333
				CHANNELS 3 Zrotation Yrotation Xrotation
				JOINT LeftToe
				{
					OFFSET 2.635814 -5.579078 11.928840
					CHANNELS 3 Zrotation Yrotation Xrotation
					End Site
					{
						OFFSET 0.000000 0.000000 0.000000
					}
				}
			}
		}
	}
	JOINT RightUpLeg
	{
		OFFSET -6.767048 -9.052170 -0.431982
		CHANNELS 3 Zrotation Yrotation Xrotation
		JOINT RightLeg
		{
			OFFSET -3.829005 -38.256897 -0.885003
			CHANNELS 3 Zrotation Yrotation Xrotation
			JOINT RightFoot
			{
				OFFSET 1.577377 -39.841461 -4.231180
				CHANNELS 3 Zrotation Yrotation Xrotation
				JOINT RightToe
				{
					OFFSET -2.537174 -4.814398 12.334795
					CHANNELS 3 Zrotation Yrotation Xrotation
					End Site
					{
						OFFSET 0.000000 0.000000 0.000000
					}
				}
			}
		}
	}
	JOINT Spine
	{
		OFFSET -0.253288 10.896323 -2.669631
		CHANNELS 3 Zrotation Yrotation Xrotation
		JOINT Spine1
		{
			OFFSET 0.548704 13.518043 0.109247
			CHANNELS 3 Zrotation Yrotation Xrotation
			JOINT Spine2
			{
				OFFSET 0.145701 5.292222 2.542457
				CHANNELS 3 Zrotation Yrotation Xrotation
				JOINT Neck
				{
					OFFSET -0.277840 21.387037 -4.285703
					CHANNELS 3 Zrotation Yrotation Xrotation
					JOINT Head
					{
						OFFSET 0.515184 6.496960 5.134897
						CHANNELS 3 Zrotation Yrotation Xrotation
						End Site
						{
							OFFSET 0.000000 0.000000 0.000000
						}
					}
				}
				JOINT LeftShoulder
				{
					OFFSET 7.884473 12.174932 -3.408961
					CHANNELS 3 Zrotation Yrotation Xrotation
					JOINT LeftArm
					{
						OFFSET 9.097692 3.046888 -0.886815
						CHANNELS 3 Zrotation Yrotation Xrotation
						JOINT LeftForeArm
						{
							OFFSET 25.961220 -1.277207 -2.745643
							CHANNELS 3 Zrotation Yrotation Xrotation
							JOINT LeftHand
							{
								OFFSET 24.923361 0.898606 -0.117091
								CHANNELS 3 Zrotation Yrotation Xrotation
								End Site
								{
									OFFSET 0.000000 0.000000 0.000000
								}
							}
						}
					}
				}
				JOINT RightShoulder
				{
					OFFSET -8.175920 11.883285 -3.861528
					CHANNELS 3 Zrotation Yrotation Xrotation
					JOINT RightArm
					{
						OFFSET -9.601238 3.255117 -0.914307
						CHANNELS 3 Zrotation Yrotation Xrotation
						JOINT RightForeArm
						{
							OFFSET -25.374195 -1.332924 -2.140099
							CHANNELS 3 Zrotation Yrotation Xrotation
							JOINT RightHand
							{
								OFFSET -25.529810 0.777228 -0.555919
								CHANNELS 3 Zrotation Yrotation Xrotation
								End Site
								{
									OFFSET 0.000000 0.000000 0.000000
								}
							}
						}
					}
				}
			}
		}
	}
}
MOTION
Frames: 10
Frame Time: 0.033333
-58.383026 10.664373 90.950737 160.200714 6.106778 80.194365 21.175302 13.862846 -23.265123 9.840882 32.576521 50.143918 -2.350293 7.401430 -12.103447 nan nan nan -9.727092 -12.722096 25.786317 1.986782 -7.541870 10.101866 0.032969 -1.709312 -24.028129 nan nan nan 3.928022 11.194594 5.539446 -1.502867 0.723816 7.328654 -1.268090 5.866084 -9.675720 4.463887 -3.583580 14.728170 2.434487 8.884001 17.351658 -19.174287 2.172449 11.221289 -60.658608 10.091213 -12.193501 27.119565 -42.539425 -13.643861 18.526459 -27.400498 -30.739281 4.574822 17.170431 1.812308 59.849398 31.237559 9.739170 -120.560150 75.238719 -99.185174 -16.323011 26.767403 -28.426728 
-58.596836 11.223280 90.830246 162.254270 6.507991 79.752336 20.460768 13.528296 -23.245687 9.448607 31.616551 49.626432 -1.391272 7.661265 -13.093399 nan nan nan -9.380957 -12.874031 26.090133 1.652913 -7.783186 12.122508 0.393561 -2.020016 -24.059914 nan nan nan 3.870187 11.604128 5.990670 -1.884357 1.229213 6.222539 -1.200919 6.138544 -9.065122 5.041417 -5.341148 14.311014 3.281073 7.668636 18.119574 -18.249410 2.550827 11.156403 -61.239518 10.831913 -12.415922 27.093895 -42.991502 -13.116837 18.633415 -27.255573 -30.721544 3.474803 17.272554 1.536136 58.681676 30.190995 8.112341 -113.427021 74.822892 -92.433278 -17.226992 26.321231 -27.772191 
-58.857567 11.842877 90.785088 164.411581 6.921986 79.148481 19.602578 12.843084 -22.905750 8.642024 29.908649 48.512600 -0.567400 8.240044 -14.158759 nan nan nan -9.136760 -13.027585 26.248101 1.241911 -8.312444 14.904268 1.023749 -2.133118 -23.765546 nan nan nan 3.725158 12.143298 6.473813 -2.038955 1.836935 5.423846 -1.189278 6.256624 -8.568739 6.060025 -6.811891 14.096325 3.963819 5.995315 18.374437 -17.389391 2.895572 11.069300 -61.339419 11.266056 -12.092909 26.818767 -43.251165 -12.500013 18.757773 -27.279606 -30.995197 2.291114 16.684728 0.762047 57.890471 28.849188 6.842421 -104.809092 74.496118 -84.432304 -17.280619 25.945521 -28.356880 
-59.135551 12.554907 90.808678 166.543139 7.360555 78.428191 18.670060 12.129858 -22.194961 7.713547 27.607044 47.156252 -0.102234 8.816873 -15.247408 nan nan nan -9.086638 -13.262954 26.185848 0.736738 -8.981155 18.466054 1.941319 -1.872180 -22.985317 nan nan nan 3.485655 12.765404 6.854866 -2.052517 2.554110 4.673974 -1.077714 6.301317 -7.925174 7.279882 -8.241426 14.063319 4.527843 4.302197 18.158955 -16.509107 3.310685 10.820109 -61.261194 11.440100 -11.635624 26.381790 -43.536169 -11.463338 18.712274 -27.182859 -31.267220 1.014536 15.687403 -0.188293 57.443354 27.302717 5.756739 -94.478338 74.198159 -74.984347 -17.890114 25.450698 -29.048908 
-59.441952 13.334493 90.902107 168.908100 7.753323 77.786575 17.556741 11.351550 -21.433621 6.888892 25.198611 45.869979 0.183964 9.340299 -16.252506 nan nan nan -9.234110 -13.604112 25.729494 0.230919 -9.704128 22.766562 3.277507 -1.572397 -21.357076 nan nan nan 3.024856 13.278679 6.681690 -1.928768 3.181091 4.509579 -0.929899 6.275423 -7.518954 8.300112 -9.901621 14.499580 5.008523 2.886677 17.619978 -15.784968 3.871674 10.563288 -60.907498 11.324674 -11.176977 25.823121 -43.861254 -9.887660 18.880617 -27.156580 -31.185167 0.023679 14.665496 -0.548085 56.885273 25.840405 4.437501 -82.186232 73.535728 -63.594517 -19.016662 24.708557 -30.257636 
-59.814522 14.122955 91.076317 171.640460 8.121019 77.243709 16.294514 10.500948 -20.835852 6.301401 22.975802 44.899013 0.788581 9.705880 -16.901501 nan nan nan -9.576323 -14.141820 24.749732 -0.307136 -10.352958 27.979267 4.583357 -1.708085 -18.580240 nan nan nan 2.377012 13.644203 6.106263 -1.711344 3.613817 4.851599 -0.743968 6.085619 -7.329262 9.119013 -11.668510 15.256738 5.640341 1.864789 17.080834 -15.408357 4.483780 10.441346 -60.231568 10.961236 -10.774076 25.293759 -44.379715 -8.424296 19.359262 -26.960481 -30.623155 -0.285335 13.801279 -0.154399 55.491108 24.571862 2.973924 -69.460133 72.231418 -51.929059 -20.758894 23.211521 -31.265273 
-60.224762 14.932501 91.356171 174.615160 8.659428 76.619253 15.260685 9.655531 -20.240872 5.897580 20.949901 44.284463 1.593408 9.868256 -17.064908 nan nan nan -9.916994 -14.804750 23.498360 -0.956115 -10.597164 33.772798 4.966160 -1.866199 -14.791441 nan nan nan 1.636864 13.865964 5.478950 -1.317395 3.819179 5.359870 -0.409283 5.715436 -7.163038 9.810188 -13.454480 16.236966 6.323273 1.127185 16.461984 -15.046213 5.084907 10.547625 -59.692145 10.331624 -10.551705 24.745916 -45.022480 -7.485256 19.776514 -26.379346 -30.573495 -0.056931 12.963280 0.454814 53.677349 23.451749 1.613861 -57.146302 70.224135 -41.202303 -22.798872 21.801326 -32.398596 
-60.669151 15.700376 91.706520 177.606941 9.418586 75.824368 14.695969 8.619132 -19.475021 5.408365 19.120813 43.858942 2.178701 9.935032 -17.008349 nan nan nan -9.956655 -15.090503 21.995336 -1.564843 -10.459928 39.812349 4.657343 -1.565136 -10.229976 nan nan nan 1.019706 13.759011 5.105802 -0.779619 3.848218 5.909399 -0.037336 5.431255 -7.025871 10.349866 -14.963582 17.259030 6.976792 0.210915 15.813268 -14.376260 5.510919 10.670832 -59.702461 9.523525 -10.336792 24.224335 -45.270743 -7.136208 19.756240 -26.094962 -31.449000 0.247555 12.118029 0.805333 52.205697 22.409861 0.283046 -45.634519 67.304372 -31.697801 -24.331622 21.159544 -33.680860 
-61.163628 16.341175 92.076866 -179.364338 10.166910 75.110068 14.294737 7.036042 -18.667184 4.598844 17.547852 43.264082 2.562250 10.252448 -16.856904 nan nan nan -9.823467 -14.671847 19.936401 -1.769269 -10.441108 46.018631 4.433046 -1.200573 -4.474004 nan nan nan 0.370382 13.390750 4.918004 -0.164011 3.822484 6.279855 0.336653 5.120926 -6.716870 10.832505 -16.076025 18.214220 7.575807 -0.776727 14.971877 -13.862845 5.873685 10.747825 -59.852020 8.484078 -9.956895 24.015221 -45.258067 -7.249576 19.471563 -26.138292 -31.665103 0.739059 11.238019 1.173405 50.709984 21.626095 -0.971849 -36.151186 63.598750 -24.454859 -25.703261 20.255336 -35.403078 
-61.634609 16.897942 92.453621 -176.073630 10.937021 74.560106 14.006110 5.043340 -17.942303 3.452273 16.100315 42.515693 3.035176 10.754669 -16.631370 nan nan nan -9.774139 -14.162826 17.507428 -1.126249 -10.253998 52.161435 4.249923 -1.150844 2.976619 nan nan nan -0.586218 12.886341 4.813267 0.628843 3.644429 6.259508 0.805989 4.683945 -5.944093 11.465233 -17.104123 18.747265 8.143793 -1.516376 14.209426 -13.625176 6.320212 10.824093 -59.759365 7.071449 -9.286695 23.673436 -45.248711 -7.245113 19.672167 -26.108007 -31.481640 1.694366 10.214067 1.632386 48.985590 21.102819 -1.854511 -29.597657 59.199559 -20.002843 -26.704146 18.751672 -36.903828 
